<svg width="200" height="60" viewBox="0 0 200 60" xmlns="http://www.w3.org/2000/svg">
  <!-- Background -->
  <defs>
    <linearGradient id="navbarGradient" x1="0%" y1="0%" x2="100%" y2="0%">
      <stop offset="0%" style="stop-color:#1a1a1a;stop-opacity:1" />
      <stop offset="100%" style="stop-color:#2c3e50;stop-opacity:1" />
    </linearGradient>
  </defs>
  <rect width="200" height="60" fill="url(#navbarGradient)" rx="8"/>
  
  <!-- Stylized U with pixelated pattern -->
  <g transform="translate(10, 10)">
    <!-- U letter base -->
    <path d="M0 20 L0 5 Q0 0 5 0 L15 0 Q20 0 20 5 L20 20 Q20 25 15 25 L5 25 Q0 25 0 20 Z" 
          fill="#f39c12" stroke="#f39c12" stroke-width="1"/>
    
    <!-- Pixelated square pattern extending from U -->
    <rect x="2" y="8" width="3" height="3" fill="#2c3e50"/>
    <rect x="6" y="8" width="3" height="3" fill="#2c3e50"/>
    <rect x="10" y="8" width="3" height="3" fill="#2c3e50"/>
    <rect x="14" y="8" width="3" height="3" fill="#2c3e50"/>
    
    <rect x="2" y="12" width="3" height="3" fill="#2c3e50"/>
    <rect x="6" y="12" width="3" height="3" fill="#2c3e50"/>
    <rect x="10" y="12" width="3" height="3" fill="#2c3e50"/>
    <rect x="14" y="12" width="3" height="3" fill="#2c3e50"/>
    
    <rect x="2" y="16" width="3" height="3" fill="#2c3e50"/>
    <rect x="6" y="16" width="3" height="3" fill="#2c3e50"/>
    <rect x="10" y="16" width="3" height="3" fill="#2c3e50"/>
    <rect x="14" y="16" width="3" height="3" fill="#2c3e50"/>
  </g>
  
  <!-- UNITY text -->
  <text x="45" y="25" font-family="Arial, sans-serif" font-size="18" font-weight="bold" fill="#f39c12">UNITY</text>
  
  <!-- FITNESS text -->
  <text x="45" y="40" font-family="Arial, sans-serif" font-size="12" fill="#f39c12">FITNESS</text>
  
  <!-- Registered trademark symbol -->
  <text x="90" y="20" font-family="Arial, sans-serif" font-size="8" fill="#f39c12">®</text>
</svg>
